<svg width="96" height="70" viewBox="0 0 96 70" fill="none" xmlns="http://www.w3.org/2000/svg">
<path d="M86.0089 61.7383C85.3404 61.4562 84.8529 61.0698 84.5462 60.5792C84.2457 60.0825 84.0955 59.5397 84.0955 58.951C84.0955 57.9452 84.4451 57.1142 85.1442 56.458C85.8494 55.8018 86.8491 55.4737 88.1431 55.4737C89.4248 55.4737 90.4183 55.8018 91.1236 56.458C91.835 57.1142 92.1907 57.9452 92.1907 58.951C92.1907 59.5765 92.0281 60.1346 91.7031 60.6252C91.3781 61.1097 90.9212 61.4807 90.3325 61.7383C91.0806 62.0388 91.6479 62.4773 92.0343 63.0537C92.4268 63.6302 92.623 64.2956 92.623 65.0499C92.623 66.2949 92.2244 67.3068 91.4271 68.0856C90.636 68.8645 89.5812 69.2539 88.2627 69.2539C87.0361 69.2539 86.015 68.9319 85.1994 68.288C84.2365 67.5276 83.7551 66.485 83.7551 65.1603C83.7551 64.4305 83.936 63.7621 84.2979 63.1549C84.6597 62.5417 85.23 62.0695 86.0089 61.7383ZM86.5424 59.135C86.5424 59.6501 86.6866 60.0518 86.9748 60.34C87.2692 60.6283 87.6586 60.7724 88.1431 60.7724C88.6337 60.7724 89.0262 60.6283 89.3206 60.34C89.6149 60.0457 89.7621 59.6409 89.7621 59.1258C89.7621 58.6413 89.6149 58.2549 89.3206 57.9667C89.0323 57.6723 88.649 57.5251 88.1707 57.5251C87.6739 57.5251 87.2784 57.6723 86.984 57.9667C86.6896 58.261 86.5424 58.6505 86.5424 59.135ZM86.3033 64.912C86.3033 65.6234 86.4842 66.1784 86.846 66.577C87.214 66.9756 87.6709 67.1749 88.2167 67.1749C88.7502 67.1749 89.1918 66.9848 89.5413 66.6046C89.8909 66.2182 90.0657 65.6632 90.0657 64.9396C90.0657 64.3079 89.8878 63.8019 89.5321 63.4217C89.1764 63.0354 88.7257 62.8422 88.1799 62.8422C87.5482 62.8422 87.076 63.0599 86.7632 63.4953C86.4566 63.9307 86.3033 64.4029 86.3033 64.912Z" fill="black"/>
<path d="M73.3602 65.8963L75.8624 65.6203C75.9237 66.1293 76.0832 66.5065 76.3407 66.7518C76.5983 66.9971 76.9387 67.1197 77.3618 67.1197C77.8954 67.1197 78.3492 66.8744 78.7233 66.3838C79.0974 65.8932 79.3366 64.8752 79.4408 63.3297C78.7907 64.084 77.9782 64.4612 77.0031 64.4612C75.9421 64.4612 75.0253 64.0534 74.2525 63.2377C73.486 62.4159 73.1027 61.3489 73.1027 60.0365C73.1027 58.6689 73.5074 57.568 74.3169 56.734C75.1326 55.8938 76.169 55.4737 77.4262 55.4737C78.7938 55.4737 79.9161 56.0042 80.7931 57.0652C81.6701 58.12 82.1085 59.8586 82.1085 62.281C82.1085 64.7464 81.6517 66.5249 80.7379 67.6165C79.8241 68.7081 78.6344 69.2539 77.1686 69.2539C76.1138 69.2539 75.2614 68.9749 74.6113 68.4168C73.9612 67.8526 73.5442 67.0124 73.3602 65.8963ZM79.2108 60.248C79.2108 59.414 79.0177 58.767 78.6313 58.307C78.2511 57.8471 77.8095 57.6171 77.3066 57.6171C76.8283 57.6171 76.4297 57.8072 76.1108 58.1874C75.798 58.5615 75.6416 59.1779 75.6416 60.0365C75.6416 60.9073 75.8133 61.5482 76.1567 61.9591C76.5002 62.3638 76.9295 62.5662 77.4446 62.5662C77.9414 62.5662 78.3584 62.37 78.6957 61.9775C79.0391 61.585 79.2108 61.0085 79.2108 60.248Z" fill="black"/>
<path d="M67.8867 69.0147V66.301H62.3673V64.038L68.2179 55.4737H70.3889V64.0288H72.0631V66.301H70.3889V69.0147H67.8867ZM67.8867 64.0288V59.4201L64.7867 64.0288H67.8867Z" fill="black"/>
<path d="M61.0611 66.6138V69.0147H52C52.0981 68.1071 52.3925 67.2485 52.8831 66.439C53.3737 65.6234 54.3427 64.544 55.79 63.2009C56.9552 62.1154 57.6697 61.3795 57.9334 60.9932C58.2891 60.4596 58.4669 59.9322 58.4669 59.4109C58.4669 58.8344 58.3106 58.3929 57.9978 58.0863C57.6912 57.7735 57.2649 57.6171 56.7191 57.6171C56.1794 57.6171 55.7501 57.7796 55.4312 58.1047C55.1123 58.4297 54.9284 58.9694 54.8793 59.7237L52.3036 59.4661C52.4569 58.0433 52.9383 57.0222 53.7478 56.4028C54.5573 55.7834 55.5692 55.4737 56.7835 55.4737C58.1143 55.4737 59.1599 55.8325 59.9204 56.55C60.6808 57.2675 61.0611 58.1598 61.0611 59.2269C61.0611 59.8341 60.9507 60.4136 60.7299 60.9656C60.5153 61.5114 60.1718 62.0848 59.6996 62.6858C59.3868 63.0844 58.8226 63.6578 58.007 64.406C57.1913 65.1542 56.6731 65.651 56.4523 65.8963C56.2377 66.1416 56.0629 66.3807 55.928 66.6138H61.0611Z" fill="black"/>
<path d="M56.595 34.0843V34.1152L56.5959 34.146C56.6383 35.5184 56.3126 38.166 55.9357 39.4642L55.9106 39.5509L55.8933 39.6395C54.8889 44.7959 51.9077 50.2721 47.8146 54.913C43.8924 59.36 39.0826 62.8891 34.3006 64.6201C29.5186 62.8891 24.7088 59.36 20.7866 54.913C16.6935 50.2721 13.7123 44.7959 12.7079 39.6395L12.6906 39.5509L12.6655 39.4642C12.2866 38.1592 11.9546 35.5153 12.0049 34.1583L12.0062 34.1213V34.0843V8H56.595V34.0843Z" stroke="black" stroke-width="4"/>
</svg>
