<svg width="100" height="70" viewBox="0 0 100 70" fill="none" xmlns="http://www.w3.org/2000/svg">
<path fill-rule="evenodd" clip-rule="evenodd" d="M59 29.8462H61.8333H67.5H73.1667V49.2308H76V52H59V49.2308H61.8333V32.6154H59V29.8462ZM73.1667 21.5385C73.1667 24.5973 70.6297 27.0769 67.5 27.0769C64.3704 27.0769 61.8333 24.5973 61.8333 21.5385C61.8333 18.4797 64.3704 16 67.5 16C70.6297 16 73.1667 18.4797 73.1667 21.5385Z" fill="black"/>
<path d="M50 64C56.0705 60.8167 62.0938 59.7548 67.4263 59.7548C78.0935 59.7548 86 64 86 64V10.2875C79.9835 7.07077 73.9647 6 68.621 6C57.9762 6 50 10.2452 50 10.2452C50 10.2452 42.0215 6 31.379 6C26.0352 6 20.0187 7.07077 14 10.2875V64C14 64 21.9065 59.7548 32.5738 59.7548C37.9062 59.7548 43.9295 60.8145 50 64ZM84.875 10.9612V62.2355C81.9635 60.9728 75.4948 58.6395 67.4263 58.6395C61.4615 58.6395 55.7982 59.94 50.5625 62.4808V11.2133C50.9225 11.0259 58.5995 7.11538 68.621 7.11538C74.4125 7.11538 79.8778 8.40923 84.875 10.9612ZM15.125 10.9612C20.1222 8.40923 25.5875 7.11538 31.379 7.11538C41.3983 7.11538 49.0775 11.0259 49.4375 11.2133V62.4786C44.2018 59.9378 38.5363 58.6372 32.5738 58.6372C24.5075 58.6372 18.0365 60.9706 15.125 62.2332V10.9612Z" fill="black"/>
<path d="M50 64C56.0705 60.8167 62.0938 59.7548 67.4263 59.7548C78.0935 59.7548 86 64 86 64V10.2875C79.9835 7.07077 73.9647 6 68.621 6C57.9762 6 50 10.2452 50 10.2452C50 10.2452 42.0215 6 31.379 6C26.0352 6 20.0187 7.07077 14 10.2875V64C14 64 21.9065 59.7548 32.5738 59.7548C37.9062 59.7548 43.9295 60.8145 50 64ZM84.875 10.9612V62.2355C81.9635 60.9728 75.4948 58.6395 67.4263 58.6395C61.4615 58.6395 55.7982 59.94 50.5625 62.4808V11.2133C50.9225 11.0259 58.5995 7.11538 68.621 7.11538C74.4125 7.11538 79.8778 8.40923 84.875 10.9612ZM15.125 10.9612C20.1222 8.40923 25.5875 7.11538 31.379 7.11538C41.3983 7.11538 49.0775 11.0259 49.4375 11.2133V62.4786C44.2018 59.9378 38.5363 58.6372 32.5738 58.6372C24.5075 58.6372 18.0365 60.9706 15.125 62.2332V10.9612Z" stroke="black" stroke-width="3"/>
<path d="M50 64C56.0705 60.8167 62.0938 59.7548 67.4263 59.7548C78.0935 59.7548 86 64 86 64V10.2875C79.9835 7.07077 73.9647 6 68.621 6C57.9762 6 50 10.2452 50 10.2452C50 10.2452 42.0215 6 31.379 6C26.0352 6 20.0187 7.07077 14 10.2875V64C14 64 21.9065 59.7548 32.5738 59.7548C37.9062 59.7548 43.9295 60.8145 50 64ZM84.875 10.9612V62.2355C81.9635 60.9728 75.4948 58.6395 67.4263 58.6395C61.4615 58.6395 55.7982 59.94 50.5625 62.4808V11.2133C50.9225 11.0259 58.5995 7.11538 68.621 7.11538C74.4125 7.11538 79.8778 8.40923 84.875 10.9612ZM15.125 10.9612C20.1222 8.40923 25.5875 7.11538 31.379 7.11538C41.3983 7.11538 49.0775 11.0259 49.4375 11.2133V62.4786C44.2018 59.9378 38.5363 58.6372 32.5738 58.6372C24.5075 58.6372 18.0365 60.9706 15.125 62.2332V10.9612Z" stroke="black" stroke-opacity="0.2" stroke-width="3"/>
</svg>
