<svg width="269" height="149" viewBox="0 0 269 149" fill="none" xmlns="http://www.w3.org/2000/svg">
<path d="M182.767 50.2852C186.196 50.2852 189.486 51.1468 192.637 52.87C195.787 54.5758 198.259 57.0302 200.052 60.2329C201.862 63.4357 202.767 66.7865 202.767 70.2852C202.767 73.7664 201.879 77.0911 200.104 80.259C198.346 83.4096 195.883 85.8726 192.715 87.6481C189.564 89.4061 186.248 90.2852 182.767 90.2852C179.286 90.2852 175.961 89.4061 172.793 87.6481C169.643 85.8726 167.18 83.4096 165.404 80.259C163.646 77.0911 162.767 73.7664 162.767 70.2852C162.767 66.7865 163.664 63.4357 165.456 60.2329C167.267 57.0302 169.747 54.5758 172.898 52.87C176.048 51.1468 179.338 50.2852 182.767 50.2852ZM182.793 54.2016C180.043 54.2016 177.406 54.8892 174.882 56.2643C172.358 57.6394 170.365 59.615 168.903 62.1912C167.458 64.7673 166.736 67.4653 166.736 70.2852C166.736 73.0876 167.441 75.7595 168.851 78.3008C170.278 80.8422 172.262 82.8265 174.804 84.2538C177.345 85.6812 180.008 86.3948 182.793 86.3948C185.596 86.3948 188.259 85.6812 190.783 84.2538C193.324 82.8265 195.308 80.8422 196.736 78.3008C198.163 75.7595 198.877 73.0876 198.877 70.2852C198.877 67.4653 198.146 64.7673 196.684 62.1912C195.239 59.615 193.246 57.6394 190.704 56.2643C188.18 54.8892 185.543 54.2016 182.793 54.2016ZM173.733 80.9901V59.763H178.041C182.08 59.763 184.342 59.7804 184.83 59.8152C186.257 59.937 187.362 60.2242 188.146 60.6768C188.946 61.112 189.608 61.7908 190.13 62.7134C190.67 63.6185 190.939 64.6281 190.939 65.7421C190.939 67.2738 190.435 68.588 189.425 69.6846C188.433 70.7638 187.032 71.434 185.221 71.6951C185.865 71.9388 186.362 72.2086 186.71 72.5045C187.058 72.783 187.536 73.3226 188.146 74.1233C188.302 74.3322 188.825 75.1938 189.712 76.7081L192.219 80.9901H186.892L185.117 77.5436C183.916 75.2286 182.924 73.7751 182.14 73.1833C181.357 72.5741 180.365 72.2695 179.164 72.2695H178.041V80.9901H173.733ZM178.041 68.9275H179.791C182.28 68.9275 183.82 68.8317 184.412 68.6402C185.021 68.4488 185.5 68.1181 185.848 67.6481C186.196 67.1607 186.37 66.6124 186.37 66.0032C186.37 65.4114 186.196 64.8892 185.848 64.4366C185.517 63.9666 185.039 63.6359 184.412 63.4444C183.785 63.2355 182.245 63.1311 179.791 63.1311H178.041V68.9275Z" fill="black"/>
<g clip-path="url(#clip0_36_326)">
<path fill-rule="evenodd" clip-rule="evenodd" d="M122.714 48.8772C121.907 48.959 121.097 49 120.286 49C113.845 49 107.668 46.4188 103.113 41.8241C98.5587 37.2295 96 30.9978 96 24.5C96 18.0022 98.5587 11.7705 103.113 7.17588C107.668 2.58124 113.845 0 120.286 0C121.097 -2.35551e-08 121.907 0.0409872 122.714 0.122808V7.47281C121.909 7.37344 121.097 7.3324 120.286 7.35C115.777 7.35 111.453 9.15687 108.265 12.3731C105.077 15.5894 103.286 19.9515 103.286 24.5C103.286 29.0485 105.077 33.4106 108.265 36.6269C111.453 39.8431 115.777 41.65 120.286 41.65C121.097 41.6676 121.909 41.6266 122.714 41.5272V48.8772Z" fill="black"/>
<path fill-rule="evenodd" clip-rule="evenodd" d="M164 48.8772C163.193 48.959 162.382 49 161.571 49C155.13 49 148.953 46.4188 144.399 41.8241C139.844 37.2295 137.286 30.9978 137.286 24.5C137.286 18.0022 139.844 11.7705 144.399 7.17588C148.953 2.58124 155.13 0 161.571 0C162.382 -2.35551e-08 163.193 0.0409872 164 0.122808V7.47281C163.194 7.37344 162.383 7.3324 161.571 7.35C157.695 7.34968 153.936 8.68562 150.915 11.1364C147.895 13.5872 145.796 17.0056 144.965 20.825H159.143V28.175H144.965C145.796 31.9944 147.895 35.4128 150.915 37.8636C153.936 40.3144 157.695 41.6503 161.571 41.65C162.383 41.6676 163.194 41.6266 164 41.5272V48.8772Z" fill="black"/>
</g>
<path d="M219.75 145.728C219.299 145.728 218.935 145.52 218.658 145.104C218.346 144.688 218.19 144.151 218.19 143.492C218.19 142.799 218.363 142.261 218.71 141.88C219.022 141.499 219.455 141.308 220.01 141.308C221.916 141.308 223.598 140.753 225.054 139.644C226.475 138.535 227.983 136.663 229.578 134.028L234.31 126.124C235.731 123.732 237.187 122.068 238.678 121.132C240.203 120.196 241.815 119.728 243.514 119.728H243.566C245.23 119.728 246.755 120.161 248.142 121.028C249.528 121.86 250.69 123.004 251.626 124.46C252.562 123.004 253.74 121.86 255.162 121.028C256.583 120.161 258.178 119.728 259.946 119.728C261.02 119.728 262.095 119.867 263.17 120.144C264.244 120.421 265.111 120.785 265.77 121.236C265.77 121.895 265.614 122.623 265.302 123.42C265.024 124.183 264.695 124.755 264.314 125.136C263.482 124.824 262.736 124.599 262.078 124.46C261.419 124.287 260.795 124.2 260.206 124.2C258.368 124.2 256.878 124.928 255.734 126.384C254.59 127.84 254.018 129.729 254.018 132.052C254.018 133.855 254.33 135.449 254.954 136.836C255.578 138.223 256.427 139.315 257.502 140.112C258.611 140.909 259.876 141.308 261.298 141.308C263.447 141.308 265.302 140.701 266.862 139.488C267.451 139.835 267.936 140.337 268.318 140.996C268.699 141.655 268.89 142.331 268.89 143.024C268.3 143.683 267.295 144.307 265.874 144.896C264.487 145.451 262.875 145.728 261.038 145.728H260.934C258.75 145.728 256.843 145.277 255.214 144.376C253.584 143.475 252.302 142.175 251.366 140.476C250.256 142.071 248.887 143.353 247.258 144.324C245.663 145.26 243.93 145.728 242.058 145.728C240.81 145.728 239.527 145.503 238.21 145.052C236.892 144.636 235.887 144.099 235.194 143.44C235.228 142.643 235.436 141.88 235.818 141.152C236.199 140.424 236.684 139.887 237.274 139.54C238.868 140.684 240.411 141.256 241.902 141.256C244.328 141.256 246.235 140.181 247.622 138.032C248.731 136.403 249.286 134.496 249.286 132.312C249.286 130.821 249.008 129.469 248.454 128.256C247.934 127.008 247.223 126.02 246.322 125.292C245.455 124.564 244.467 124.2 243.358 124.2C242.56 124.2 241.728 124.443 240.862 124.928C240.03 125.413 239.215 126.349 238.418 127.736L233.114 136.628C231.831 138.812 230.531 140.58 229.214 141.932C227.896 143.249 226.475 144.22 224.95 144.844C223.424 145.433 221.691 145.728 219.75 145.728Z" fill="black"/>
<path d="M197.557 145.728C197.106 145.728 196.725 145.52 196.413 145.104C196.101 144.688 195.945 144.185 195.945 143.596C195.945 142.868 196.118 142.313 196.465 141.932C196.777 141.516 197.21 141.308 197.765 141.308C199.394 141.308 201.041 141.1 202.705 140.684C204.334 140.268 206.085 139.523 207.957 138.448C206.917 136.16 206.397 133.595 206.397 130.752C206.397 128.637 206.796 126.765 207.593 125.136C208.425 123.472 209.534 122.155 210.921 121.184C212.342 120.213 213.937 119.728 215.705 119.728C217.196 119.728 218.53 120.075 219.709 120.768C220.888 121.461 221.824 122.397 222.517 123.576C223.21 124.755 223.557 126.089 223.557 127.58C223.557 129.799 222.777 131.913 221.217 133.924C219.657 135.935 217.386 137.824 214.405 139.592C215.757 140.736 217.629 141.308 220.021 141.308C220.472 141.308 220.836 141.516 221.113 141.932C221.425 142.348 221.581 142.903 221.581 143.596C221.581 144.255 221.408 144.775 221.061 145.156C220.749 145.537 220.316 145.728 219.761 145.728C217.82 145.728 216.034 145.416 214.405 144.792C212.776 144.133 211.441 143.232 210.401 142.088C205.964 144.515 201.682 145.728 197.557 145.728ZM210.869 130.596C210.869 132.884 211.285 134.721 212.117 136.108C216.728 133.439 219.033 130.596 219.033 127.58C219.033 126.471 218.738 125.604 218.149 124.98C217.56 124.356 216.745 124.044 215.705 124.044C214.318 124.044 213.157 124.668 212.221 125.916C211.32 127.129 210.869 128.689 210.869 130.596Z" fill="black"/>
<path d="M183.197 145.728C181.915 144.827 181.065 143.423 180.649 141.516C181.793 140.857 182.955 140.06 184.133 139.124C185.312 138.188 186.369 137.2 187.305 136.16C186.924 134.288 186.664 131.861 186.525 128.88C186.387 125.899 186.317 121.964 186.317 117.076H186.369L186.317 117.024C186.317 113.939 186.352 111.321 186.421 109.172C186.491 107.023 186.629 105.22 186.837 103.764C187.045 102.308 187.305 101.077 187.617 100.072C187.964 99.032 188.397 98.096 188.917 97.264C189.68 96.016 190.616 95.1147 191.725 94.56C192.869 94.0053 194.117 93.728 195.469 93.728C198.173 93.728 200.253 94.924 201.709 97.316C203.165 99.708 203.893 103.001 203.893 107.196C203.893 110.212 203.564 113.211 202.905 116.192C202.281 119.139 201.415 121.947 200.305 124.616C199.231 127.285 198 129.729 196.613 131.948C195.227 134.132 193.788 135.987 192.297 137.512C192.332 137.616 192.384 137.737 192.453 137.876C192.939 139.02 193.649 139.887 194.585 140.476C195.521 141.031 196.596 141.308 197.809 141.308C198.295 141.308 198.676 141.516 198.953 141.932C199.265 142.313 199.421 142.851 199.421 143.544C199.421 145 198.78 145.728 197.497 145.728C195.521 145.728 193.771 145.295 192.245 144.428C190.755 143.527 189.645 142.417 188.917 141.1C188.189 141.863 187.357 142.625 186.421 143.388C185.52 144.116 184.445 144.896 183.197 145.728ZM190.945 117.336C190.945 120.907 190.963 123.871 190.997 126.228C191.067 128.551 191.153 130.475 191.257 132C192.748 129.989 194.1 127.632 195.313 124.928C196.527 122.189 197.48 119.295 198.173 116.244C198.901 113.193 199.265 110.16 199.265 107.144C199.265 104.267 198.936 102.065 198.277 100.54C197.619 98.98 196.683 98.2 195.469 98.2C194.117 98.2 193.095 98.9973 192.401 100.592C192.055 101.424 191.76 102.481 191.517 103.764C191.309 105.012 191.153 106.711 191.049 108.86C190.98 111.009 190.945 113.835 190.945 117.336Z" fill="black"/>
<path d="M161.592 145.208C161.211 145.208 160.812 145.191 160.396 145.156C160.015 145.121 159.616 145.069 159.2 145V107.456H181.092C181.3 108.08 181.404 108.825 181.404 109.692C181.404 110.559 181.3 111.321 181.092 111.98H164.036V123.628H179.428C179.809 125.153 179.809 126.661 179.428 128.152H164.036V145C163.655 145.069 163.256 145.121 162.84 145.156C162.424 145.191 162.008 145.208 161.592 145.208Z" fill="black"/>
<path d="M139.277 94.5538C137.914 97.474 135.78 99.338 132.877 100.146C131.034 100.658 129.406 100.516 127.993 99.7179C126.599 98.9306 125.654 97.6452 125.158 95.8617C124.53 93.6066 124.806 91.1717 125.984 88.5571C127.12 86.0178 128.893 83.7142 131.303 81.6461C133.804 79.5052 136.587 78.0082 139.653 77.1552C140.818 76.8313 141.702 76.7838 142.305 77.0129C142.572 76.4305 142.85 76.0594 143.139 75.8996C143.439 75.7209 143.677 75.607 143.854 75.5578C144.414 75.402 145.033 75.3169 145.712 75.3027C145.707 75.5108 145.674 75.8773 145.613 76.4022C145.549 76.9125 145.487 77.5173 145.427 78.2167C145.368 78.9162 145.31 79.6786 145.254 80.5042C145.042 83.4533 145.123 85.5986 145.496 86.9399C145.865 88.2665 146.47 88.8129 147.31 88.5791C148.401 88.2757 149.479 87.4436 150.546 86.0828C151.49 84.8515 152.224 83.4402 152.75 81.8487C153.401 81.62 153.809 81.8004 153.973 82.39C154.112 82.8911 154.016 83.7437 153.684 84.9477C153.367 86.1476 153.025 87.2034 152.66 88.115C152.294 89.0267 151.858 89.9421 151.351 90.8612C150.845 91.7802 150.273 92.6379 149.637 93.4342C148.206 95.198 146.643 96.3157 144.948 96.7873C142.796 97.386 141.171 97.1394 140.074 96.0473C139.727 95.715 139.513 95.4014 139.431 95.1066C139.345 94.7971 139.293 94.6128 139.277 94.5538ZM131.274 90.2772C131.75 91.987 132.703 92.643 134.133 92.2452C135.71 91.8065 137.212 90.0148 138.64 86.8702C139.398 85.1984 140.024 83.6265 140.52 82.1547C141.03 80.6787 141.417 79.5549 141.678 78.7833C138.002 79.838 135.177 81.5291 133.204 83.8566C131.339 86.0587 130.696 88.1989 131.274 90.2772Z" fill="black"/>
<path d="M122.176 76.7533C121.687 77.2228 121.128 77.6403 120.5 78.0058C119.886 78.3672 119.321 78.6196 118.805 78.7632C118.289 78.9067 117.815 78.9749 117.385 78.9677C116.965 78.9416 116.567 78.8538 116.192 78.704C115.419 78.3792 114.931 77.8557 114.73 77.1335C114.525 76.3965 114.471 75.7446 114.568 75.1778C114.664 74.6111 114.891 74.0873 115.25 73.6064C115.995 72.5734 117.244 71.8129 118.998 71.3249C120.679 70.8574 121.973 71.2278 122.881 72.4363C123.149 72.7744 123.351 73.1867 123.487 73.6731C123.618 74.1447 123.553 74.655 123.293 75.2038C123.033 75.7526 122.661 76.2691 122.176 76.7533ZM118.384 103.964C118.412 105.893 118.428 107.604 118.43 109.096C118.436 110.603 118.582 111.533 118.132 112.99C117.726 114.304 116.936 115.401 116.442 116.079C115.595 117.012 115.12 117.652 114.146 117.88C113.351 118.101 112.621 117.891 112.085 117.85C111.55 117.808 110.997 117.591 110.396 117.219C109.324 116.554 109.567 115.873 109.603 115.554C110.498 114.32 112.001 108.336 114.112 97.6008C115.3 91.5376 116.201 87.2692 116.815 84.7956C117.066 83.7571 117.589 83.1271 118.385 82.9057C118.842 82.7785 119.408 82.7877 120.084 82.9332C119.111 87.8253 118.557 92.8548 118.422 98.0216C121.157 96.7208 123.481 94.6291 125.394 91.7464C125.987 90.851 126.424 89.9672 126.705 89.0949C127.356 88.8661 127.764 89.0465 127.928 89.6361C127.993 89.8719 127.963 90.4759 127.836 91.4481C127.725 92.4162 127.384 93.5907 126.816 94.9717C126.247 96.3527 125.534 97.615 124.677 98.7586C122.989 101.023 120.891 102.758 118.384 103.964Z" fill="black"/>
<path d="M96.4939 109.363C96.6579 109.953 96.2461 110.385 95.2586 110.659C92.8118 111.34 90.8019 110.851 89.2288 109.193C88.6528 108.607 88.2315 107.834 87.965 106.876C87.6984 105.918 87.574 104.929 87.5916 103.907C87.6051 102.871 87.7185 101.823 87.9318 100.764C88.1451 99.7038 88.4403 98.653 88.8174 97.6111C89.1946 96.5692 89.627 95.5834 90.1147 94.6537C91.1392 92.6853 92.2193 91.2017 93.3548 90.203C93.6634 89.9424 93.9578 89.7732 94.2378 89.6952C94.5326 89.6132 94.7779 89.5529 94.9736 89.5144C95.4723 89.4233 95.8847 89.507 96.2107 89.7657C95.8406 91.9173 95.5875 93.8616 95.4515 95.5987C97.3575 92.2893 99.9185 89.679 103.135 87.7679C104.183 87.1426 105.128 86.7131 105.968 86.4793C106.823 86.2415 107.362 86.2662 107.585 86.5536C107.804 86.8262 107.95 87.0952 108.024 87.3605C108.097 87.6258 108.161 87.9972 108.215 88.4746C108.264 88.9373 108.244 89.6097 108.156 90.4918C108.068 91.3738 107.975 92.2653 107.876 93.1662C107.625 95.4594 107.604 96.9819 107.813 97.7336C108.174 99.0307 108.819 99.55 109.747 99.2917C111.339 98.8488 112.802 97.3143 114.136 94.6881C114.528 93.928 114.856 93.138 115.12 92.3181C115.771 92.0893 116.178 92.2697 116.342 92.8593C116.474 93.331 116.389 94.1963 116.088 95.4551C115.783 96.6993 115.461 97.7972 115.123 98.749C114.795 99.6819 114.389 100.621 113.905 101.565C113.421 102.51 112.851 103.399 112.194 104.233C110.76 106.045 109.189 107.189 107.479 107.664C105.769 108.14 104.347 108.051 103.213 107.398C102.078 106.745 101.271 105.557 100.791 103.832C100.082 101.282 100.559 97.8618 102.224 93.5714C102.736 92.2699 102.94 91.6335 102.836 91.6622C101.716 91.9738 100.336 93.1201 98.6956 95.101C97.0699 97.0779 95.9479 99.0098 95.3295 100.897C95.4184 103.842 95.8065 106.664 96.4939 109.363Z" fill="black"/>
<path d="M85.3219 87.102C84.7996 87.5649 84.2073 87.9758 83.5449 88.3348C82.8931 88.6749 82.3093 88.9168 81.7934 89.0603C81.2775 89.2038 80.7968 89.274 80.3513 89.271C79.9017 89.2531 79.4819 89.1714 79.092 89.0258C78.241 88.7067 77.715 88.1861 77.5141 87.4638C77.3131 86.7416 77.2683 86.095 77.3794 85.5242C77.5053 84.9492 77.7622 84.4172 78.1502 83.9281C78.9835 82.8705 80.1297 82.1387 81.589 81.7327C83.0629 81.3226 84.2156 81.3275 85.047 81.7473C85.8932 82.163 86.4249 82.7614 86.6423 83.5426C86.8596 84.3238 86.8235 84.9929 86.5338 85.5499C86.2441 86.1069 85.8401 86.6243 85.3219 87.102ZM74.3689 113.66C73.8748 113.083 73.4945 112.316 73.2279 111.358C72.9573 110.385 72.8786 109.303 72.992 108.112C73.1201 106.917 73.3608 105.699 73.7141 104.457C74.078 103.197 74.5279 101.96 75.0638 100.747C75.5957 99.5189 76.1529 98.4111 76.7356 97.4231C78.0262 95.2696 79.0843 94.078 79.9097 93.8483C80.2634 93.7499 80.6971 93.796 81.2107 93.9866C81.7349 94.1584 82.0764 94.3015 82.2354 94.4161C80.674 97.4232 79.9081 100.122 79.9378 102.511C79.9348 103.243 80.0235 103.933 80.204 104.581C80.3803 105.215 80.7834 105.722 81.4134 106.103C82.0392 106.468 82.7133 106.551 83.4355 106.35C84.1577 106.149 84.7915 105.83 85.3367 105.392C85.8926 104.936 86.4112 104.403 86.8925 103.792C87.8363 102.561 88.5711 101.15 89.0971 99.5581C89.7481 99.3293 90.1556 99.5097 90.3196 100.099C90.4549 100.586 90.3586 101.438 90.0307 102.657C89.7176 103.872 89.3654 104.946 88.9744 105.881C88.5792 106.801 88.0935 107.738 87.5173 108.692C86.9559 109.642 86.2982 110.532 85.5443 111.361C83.8564 113.228 81.929 114.463 79.7623 115.066C77.4777 115.702 75.6799 115.233 74.3689 113.66Z" fill="black"/>
<path d="M66.9727 111.478C67.3404 111.487 67.7306 111.434 68.1434 111.319C68.5708 111.2 69.0191 110.956 69.4882 110.588C69.8216 110.701 70.1218 110.896 70.3889 111.171C70.6519 111.431 70.8162 111.679 70.8818 111.915C70.9474 112.151 70.9459 112.517 70.8773 113.012C70.8235 113.503 70.6906 114.025 70.4787 114.576C70.2627 115.113 69.9689 115.655 69.5974 116.203C69.2405 116.747 68.8198 117.261 68.3351 117.745C66.5235 119.567 64.2459 120.399 61.5023 120.242C59.2313 120.127 57.3522 119.109 55.865 117.189C55.1111 116.192 54.5558 115.052 54.1991 113.769C53.8382 112.472 53.714 111.284 53.8266 110.205C53.9539 109.121 54.2053 108.027 54.5808 106.922C54.9521 105.802 55.4201 104.687 55.9848 103.577C56.5453 102.453 57.1267 101.346 57.729 100.258C58.3313 99.1689 58.9251 98.1064 59.5102 97.0702C60.0953 96.034 60.5961 95.0371 61.0126 94.0796C61.9478 91.9614 62.2473 90.2979 61.911 89.0893C61.4845 87.5563 60.5338 86.7648 59.0588 86.7146C58.6281 86.7074 58.0073 86.8166 57.1966 87.0421C56.386 87.2677 55.4468 87.8307 54.3793 88.7312C53.3265 89.6275 52.331 90.7303 51.3931 92.0394C50.4698 93.3443 49.6158 94.8127 48.8311 96.4444C48.0464 98.0761 47.3493 99.7945 46.7399 101.6C46.1453 103.401 45.6554 105.236 45.2705 107.106C44.1393 112.63 44.076 117.197 45.0807 120.808C45.1955 121.221 45.321 121.615 45.4571 121.99C45.165 122.595 44.5601 123.304 43.6423 124.115C41.9403 125.589 40.8314 126.397 40.3155 126.541C39.8143 126.68 39.3582 126.696 38.947 126.588C38.5399 126.495 38.1336 126.29 37.7281 125.975C36.7852 125.268 36.121 124.222 35.7356 122.837C35.346 121.436 35.1631 119.923 35.187 118.297C35.2257 116.666 35.3646 114.968 35.6039 113.202C35.8431 111.436 36.1339 109.656 36.4764 107.862C36.8147 106.052 37.1178 104.317 37.3857 102.654C38.0074 98.7808 38.0906 96.0262 37.6354 94.3901C37.2377 92.9603 36.8753 92.0289 36.5484 91.5958C35.9338 90.8139 35.2761 90.5046 34.5751 90.6679C34.3446 89.668 34.7378 89.0266 35.7549 88.7437C36.7719 88.4607 37.7387 88.5967 38.6554 89.1516C40.043 89.9724 41.0567 91.5325 41.6964 93.8319C42.4387 96.4998 42.5587 99.6425 42.0565 103.26C44.3237 97.881 46.5815 93.6956 48.83 90.7039C51.5409 87.0911 54.4367 84.8562 57.5173 83.9992C60.4652 83.179 62.7053 83.8103 64.2376 85.8931C64.7498 86.5923 65.1575 87.4873 65.461 88.578C65.7604 89.654 65.8947 90.7362 65.864 91.8246C65.8481 92.909 65.7376 93.9958 65.5324 95.0851C65.338 96.1555 65.1066 97.2362 64.8385 98.3272C64.5703 99.4182 64.3513 100.543 64.1814 101.702C63.7656 104.374 63.8879 106.897 64.5481 109.27C64.9418 110.685 65.75 111.421 66.9727 111.478Z" fill="black"/>
<path fill-rule="evenodd" clip-rule="evenodd" d="M112.5 69C110.5 67.5 83.9514 51.9911 54.7845 61.4674C22.2276 72.0452 -1.36568 99.4257 5.66942 121.079C12.7045 142.732 47.704 150.458 80.2609 139.88C91.7895 136.135 102.152 129.756 110 123L112.5 120.5L114 119L116.5 116L114.243 116.445L113 115L112.492 113.584L111.346 110.32C109.97 113.21 109.225 114.412 106.646 116.558C99.0259 123.481 89.6088 128.431 77.7889 132.272C62.7994 137.142 48.2565 137.384 37.0015 134.236C25.6799 131.069 18.6128 124.837 16.1817 117.355C13.7506 109.872 15.8055 100.677 23.1037 91.4601C30.3588 82.2977 42.267 73.946 57.2565 69.0759C72.246 64.2058 81.3946 63.7424 94.7104 66.0806C102.785 67.8972 103.904 67.7363 112.859 71.8356C112.859 71.8356 114.5 70.5 112.5 69Z" fill="black"/>
<defs>
<clipPath id="clip0_36_326">
<rect width="68" height="49" fill="white" transform="translate(96)"/>
</clipPath>
</defs>
</svg>
