<svg width="269" height="61" viewBox="0 0 269 61" fill="none" xmlns="http://www.w3.org/2000/svg">
<path d="M217.152 33V7.23047H222.215L232.762 24.4395V7.23047H237.596V33H232.375L221.986 16.1953V33H217.152Z" fill="black"/>
<path d="M214.322 33H208.662L206.412 27.1465H196.111L193.984 33H188.465L198.502 7.23047H204.004L214.322 33ZM204.742 22.8047L201.191 13.2422L197.711 22.8047H204.742Z" fill="black"/>
<path d="M165.051 7.23047H174.561C176.705 7.23047 178.34 7.39453 179.465 7.72266C180.977 8.16797 182.271 8.95898 183.35 10.0957C184.428 11.2324 185.248 12.627 185.811 14.2793C186.373 15.9199 186.654 17.9473 186.654 20.3613C186.654 22.4824 186.391 24.3105 185.863 25.8457C185.219 27.7207 184.299 29.2383 183.104 30.3984C182.201 31.2773 180.982 31.9629 179.447 32.4551C178.299 32.8184 176.764 33 174.842 33H165.051V7.23047ZM170.254 11.5898V28.6582H174.139C175.592 28.6582 176.641 28.5762 177.285 28.4121C178.129 28.2012 178.826 27.8438 179.377 27.3398C179.939 26.8359 180.396 26.0098 180.748 24.8613C181.1 23.7012 181.275 22.125 181.275 20.1328C181.275 18.1406 181.1 16.6113 180.748 15.5449C180.396 14.4785 179.904 13.6465 179.271 13.0488C178.639 12.4512 177.836 12.0469 176.863 11.8359C176.137 11.6719 174.713 11.5898 172.592 11.5898H170.254Z" fill="black"/>
<path d="M139.018 7.23047H144.221V21.1875C144.221 23.4023 144.285 24.8379 144.414 25.4941C144.637 26.5488 145.164 27.3984 145.996 28.043C146.84 28.6758 147.988 28.9922 149.441 28.9922C150.918 28.9922 152.031 28.6934 152.781 28.0957C153.531 27.4863 153.982 26.7422 154.135 25.8633C154.287 24.9844 154.363 23.5254 154.363 21.4863V7.23047H159.566V20.7656C159.566 23.8594 159.426 26.0449 159.145 27.3223C158.863 28.5996 158.342 29.6777 157.58 30.5566C156.83 31.4355 155.822 32.1387 154.557 32.666C153.291 33.1816 151.639 33.4395 149.6 33.4395C147.139 33.4395 145.27 33.1582 143.992 32.5957C142.727 32.0215 141.725 31.2832 140.986 30.3809C140.248 29.4668 139.762 28.5117 139.527 27.5156C139.188 26.0391 139.018 23.8594 139.018 20.9766V7.23047Z" fill="black"/>
<path d="M109.979 20.2734C109.979 17.6484 110.371 15.4453 111.156 13.6641C111.742 12.3516 112.539 11.1738 113.547 10.1309C114.566 9.08789 115.68 8.31445 116.887 7.81055C118.492 7.13086 120.344 6.79102 122.441 6.79102C126.238 6.79102 129.273 7.96875 131.547 10.3242C133.832 12.6797 134.975 15.9551 134.975 20.1504C134.975 24.3105 133.844 27.5684 131.582 29.9238C129.32 32.2676 126.297 33.4395 122.512 33.4395C118.68 33.4395 115.633 32.2734 113.371 29.9414C111.109 27.5977 109.979 24.375 109.979 20.2734ZM115.34 20.0977C115.34 23.0156 116.014 25.2305 117.361 26.7422C118.709 28.2422 120.42 28.9922 122.494 28.9922C124.568 28.9922 126.268 28.248 127.592 26.7598C128.928 25.2598 129.596 23.0156 129.596 20.0273C129.596 17.0742 128.945 14.8711 127.645 13.418C126.355 11.9648 124.639 11.2383 122.494 11.2383C120.35 11.2383 118.621 11.9766 117.309 13.4531C115.996 14.918 115.34 17.1328 115.34 20.0977Z" fill="black"/>
<path d="M85.0352 33V7.23047H95.9863C98.7402 7.23047 100.738 7.46484 101.98 7.93359C103.234 8.39062 104.236 9.21094 104.986 10.3945C105.736 11.5781 106.111 12.9316 106.111 14.4551C106.111 16.3887 105.543 17.9883 104.406 19.2539C103.27 20.5078 101.57 21.2988 99.3086 21.627C100.434 22.2832 101.359 23.0039 102.086 23.7891C102.824 24.5742 103.814 25.9688 105.057 27.9727L108.203 33H101.98L98.2188 27.3926C96.8828 25.3887 95.9688 24.1289 95.4766 23.6133C94.9844 23.0859 94.4629 22.7285 93.9121 22.541C93.3613 22.3418 92.4883 22.2422 91.293 22.2422H90.2383V33H85.0352ZM90.2383 18.1289H94.0879C96.584 18.1289 98.1426 18.0234 98.7637 17.8125C99.3848 17.6016 99.8711 17.2383 100.223 16.7227C100.574 16.207 100.75 15.5625 100.75 14.7891C100.75 13.9219 100.516 13.2246 100.047 12.6973C99.5898 12.1582 98.9395 11.8184 98.0957 11.6777C97.6738 11.6191 96.4082 11.5898 94.2988 11.5898H90.2383V18.1289Z" fill="black"/>
<path d="M68.9863 23.5254V19.1836H80.2012V29.4492C79.1113 30.5039 77.5293 31.4355 75.4551 32.2441C73.3926 33.041 71.3008 33.4395 69.1797 33.4395C66.4844 33.4395 64.1348 32.877 62.1309 31.752C60.127 30.6152 58.6211 28.998 57.6133 26.9004C56.6055 24.791 56.1016 22.5 56.1016 20.0273C56.1016 17.3438 56.6641 14.959 57.7891 12.873C58.9141 10.7871 60.5605 9.1875 62.7285 8.07422C64.3809 7.21875 66.4375 6.79102 68.8984 6.79102C72.0977 6.79102 74.5938 7.46484 76.3867 8.8125C78.1914 10.1484 79.3516 12 79.8672 14.3672L74.6992 15.334C74.3359 14.0684 73.6504 13.0723 72.6426 12.3457C71.6465 11.6074 70.3984 11.2383 68.8984 11.2383C66.625 11.2383 64.8145 11.959 63.4668 13.4004C62.1309 14.8418 61.4629 16.9805 61.4629 19.8164C61.4629 22.875 62.1426 25.1719 63.502 26.707C64.8613 28.2305 66.6426 28.9922 68.8457 28.9922C69.9355 28.9922 71.0254 28.7812 72.1152 28.3594C73.2168 27.9258 74.1602 27.4043 74.9453 26.7949V23.5254H68.9863Z" fill="black"/>
<path d="M31 7.23047H41.3008C43.3398 7.23047 44.8574 7.31836 45.8535 7.49414C46.8613 7.6582 47.7578 8.00977 48.543 8.54883C49.3398 9.08789 50.002 9.80859 50.5293 10.7109C51.0566 11.6016 51.3203 12.6035 51.3203 13.7168C51.3203 14.9238 50.9922 16.0312 50.3359 17.0391C49.6914 18.0469 48.8125 18.8027 47.6992 19.3066C49.2695 19.7637 50.4766 20.543 51.3203 21.6445C52.1641 22.7461 52.5859 24.041 52.5859 25.5293C52.5859 26.7012 52.3105 27.8438 51.7598 28.957C51.2207 30.0586 50.4766 30.9434 49.5273 31.6113C48.5898 32.2676 47.4297 32.6719 46.0469 32.8242C45.1797 32.918 43.0879 32.9766 39.7715 33H31V7.23047ZM36.2031 11.5195V17.4785H39.6133C41.6406 17.4785 42.9004 17.4492 43.3926 17.3906C44.2832 17.2852 44.9805 16.9805 45.4844 16.4766C46 15.9609 46.2578 15.2871 46.2578 14.4551C46.2578 13.6582 46.0352 13.0137 45.5898 12.5215C45.1562 12.0176 44.5059 11.7129 43.6387 11.6074C43.123 11.5488 41.6406 11.5195 39.1914 11.5195H36.2031ZM36.2031 21.7676V28.6582H41.0195C42.8945 28.6582 44.084 28.6055 44.5879 28.5C45.3613 28.3594 45.9883 28.0195 46.4688 27.4805C46.9609 26.9297 47.207 26.1973 47.207 25.2832C47.207 24.5098 47.0195 23.8535 46.6445 23.3145C46.2695 22.7754 45.7246 22.3828 45.0098 22.1367C44.3066 21.8906 42.7715 21.7676 40.4043 21.7676H36.2031Z" fill="black"/>
<path d="M203.273 56V38.1045H208.681L211.928 50.3115L215.138 38.1045H220.558V56H217.201V41.9131L213.649 56H210.17L206.63 41.9131V56H203.273Z" fill="black"/>
<path d="M183.131 47.1621C183.131 45.3392 183.404 43.8092 183.949 42.5723C184.356 41.6608 184.91 40.8429 185.609 40.1187C186.317 39.3944 187.09 38.8573 187.929 38.5073C189.044 38.0353 190.329 37.7993 191.786 37.7993C194.423 37.7993 196.531 38.6172 198.109 40.2529C199.696 41.8887 200.49 44.1632 200.49 47.0767C200.49 49.9657 199.704 52.228 198.134 53.8638C196.563 55.4914 194.464 56.3052 191.835 56.3052C189.174 56.3052 187.058 55.4954 185.487 53.876C183.917 52.2484 183.131 50.0104 183.131 47.1621ZM186.854 47.04C186.854 49.0664 187.322 50.6045 188.258 51.6543C189.194 52.696 190.382 53.2168 191.823 53.2168C193.263 53.2168 194.443 52.7 195.363 51.6665C196.291 50.6248 196.754 49.0664 196.754 46.9912C196.754 44.9404 196.303 43.4105 195.399 42.4014C194.504 41.3923 193.312 40.8877 191.823 40.8877C190.333 40.8877 189.133 41.4004 188.222 42.4258C187.31 43.443 186.854 44.9811 186.854 47.04Z" fill="black"/>
<path d="M177.248 49.4204L180.751 50.5312C180.214 52.4844 179.319 53.937 178.065 54.8892C176.82 55.8332 175.237 56.3052 173.317 56.3052C170.941 56.3052 168.987 55.4954 167.458 53.876C165.928 52.2484 165.163 50.0267 165.163 47.2109C165.163 44.2324 165.932 41.9212 167.47 40.2773C169.008 38.6253 171.03 37.7993 173.537 37.7993C175.726 37.7993 177.504 38.4463 178.871 39.7402C179.685 40.5052 180.295 41.6038 180.702 43.0361L177.125 43.8906C176.914 42.9629 176.47 42.2305 175.795 41.6934C175.128 41.1562 174.314 40.8877 173.354 40.8877C172.027 40.8877 170.949 41.3638 170.119 42.3159C169.297 43.2681 168.886 44.8102 168.886 46.9424C168.886 49.2048 169.293 50.8161 170.106 51.7764C170.92 52.7367 171.978 53.2168 173.28 53.2168C174.241 53.2168 175.067 52.9116 175.758 52.3013C176.45 51.6909 176.946 50.7306 177.248 49.4204Z" fill="black"/>
<path d="M158.815 56V52.5698H162.245V56H158.815Z" fill="black"/>
<path d="M143.654 56V38.251H147.267V52.9849H156.251V56H143.654Z" fill="black"/>
<path d="M136.488 56V38.1045H140.102V56H136.488Z" fill="black"/>
<path d="M134.669 56H130.739L129.176 51.9351H122.023L120.546 56H116.713L123.683 38.1045H127.504L134.669 56ZM128.017 48.9199L125.551 42.2793L123.134 48.9199H128.017Z" fill="black"/>
<path d="M97.6577 56V38.1045H103.065L106.312 50.3115L109.523 38.1045H114.943V56H111.586V41.9131L108.034 56H104.555L101.015 41.9131V56H97.6577Z" fill="black"/>
<path d="M86.5737 49.4204V46.4053H94.3618V53.5342C93.605 54.2666 92.5063 54.9136 91.0659 55.4751C89.6336 56.0285 88.181 56.3052 86.708 56.3052C84.8363 56.3052 83.2046 55.9146 81.813 55.1333C80.4214 54.3439 79.3757 53.2209 78.6758 51.7642C77.9759 50.2993 77.626 48.7083 77.626 46.9912C77.626 45.1276 78.0166 43.4715 78.7979 42.0229C79.5791 40.5744 80.7225 39.4635 82.228 38.6904C83.3755 38.0964 84.8037 37.7993 86.5127 37.7993C88.7344 37.7993 90.4678 38.2673 91.7129 39.2031C92.9661 40.1309 93.7718 41.4167 94.1299 43.0605L90.541 43.7319C90.2887 42.853 89.8127 42.1613 89.1128 41.6567C88.4211 41.144 87.5544 40.8877 86.5127 40.8877C84.9339 40.8877 83.6766 41.3882 82.7407 42.3892C81.813 43.3901 81.3491 44.8753 81.3491 46.8447C81.3491 48.9688 81.8211 50.5638 82.7651 51.6299C83.7091 52.6878 84.9461 53.2168 86.4761 53.2168C87.2329 53.2168 87.9897 53.0703 88.7466 52.7773C89.5116 52.4762 90.1667 52.1141 90.7119 51.6909V49.4204H86.5737Z" fill="black"/>
<path d="M69.0794 48.8876C69.0272 49.066 68.975 49.2624 68.9228 49.4766C68.888 49.6729 68.8706 49.8603 68.8706 50.0388C68.8706 50.2173 68.9054 50.369 68.975 50.494C69.0446 50.6011 69.1577 50.6546 69.3143 50.6546C69.6797 50.6546 70.0451 50.5386 70.4105 50.3066C70.7932 50.0567 71.1238 49.7175 71.4022 49.2892C71.698 48.8429 71.9329 48.3164 72.1069 47.7095C72.2983 47.1026 72.394 46.4422 72.394 45.7282C72.394 44.6573 72.2113 43.7202 71.8459 42.917C71.4805 42.0959 70.9759 41.4087 70.3322 40.8554C69.7058 40.2842 68.9576 39.8559 68.0877 39.5703C67.2351 39.2847 66.3129 39.1419 65.3212 39.1419C64.2076 39.1419 63.1898 39.3472 62.2676 39.7577C61.3628 40.1504 60.5886 40.7037 59.9448 41.4177C59.301 42.1138 58.8051 42.9527 58.4572 43.9344C58.1092 44.8983 57.9352 45.9424 57.9352 47.0669C57.9352 48.245 58.1266 49.3159 58.5094 50.2798C58.8921 51.2258 59.4228 52.0469 60.1014 52.743C60.78 53.4212 61.589 53.9478 62.5286 54.3226C63.4855 54.6975 64.5208 54.8849 65.6344 54.8849C66.7305 54.8849 67.7658 54.6975 68.7401 54.3226C69.7319 53.9299 70.567 53.3855 71.2456 52.6894H73.4379C72.5506 54.0817 71.4109 55.1526 70.019 55.9023C68.627 56.6341 67.1133 57 65.4778 57C64.0858 57 62.7809 56.7501 61.5629 56.2503C60.345 55.7506 59.2749 55.0544 58.3528 54.162C57.448 53.2695 56.7346 52.2164 56.2127 51.0027C55.6907 49.7711 55.4297 48.4413 55.4297 47.0134C55.4297 45.6033 55.6907 44.2914 56.2127 43.0776C56.7346 41.8461 57.448 40.784 58.3528 39.8916C59.2575 38.9991 60.3102 38.2941 61.5107 37.7764C62.7113 37.2588 63.9901 37 65.3473 37C66.5304 37 67.6701 37.1963 68.7662 37.589C69.8624 37.9817 70.828 38.535 71.6632 39.249C72.4984 39.9451 73.1682 40.8019 73.6728 41.8193C74.1774 42.8188 74.4297 43.9344 74.4297 45.166C74.4297 46.5404 74.1861 47.7184 73.6989 48.7001C73.2291 49.6818 72.655 50.4851 71.9764 51.1098C71.3152 51.7345 70.6366 52.1986 69.9407 52.502C69.2621 52.7876 68.714 52.9304 68.2964 52.9304C67.7397 52.9304 67.2873 52.7876 66.9393 52.502C66.6087 52.2164 66.426 51.8505 66.3912 51.4043H66.339C66.0258 51.9398 65.617 52.3324 65.1124 52.5823C64.6078 52.8322 64.0771 52.9572 63.5203 52.9572C62.9636 52.9572 62.4329 52.8411 61.9283 52.6091C61.4411 52.3592 61.0062 52.029 60.6234 51.6185C60.258 51.1901 59.9622 50.6992 59.736 50.1459C59.5272 49.5926 59.4228 49.0036 59.4228 48.3788C59.4228 47.5399 59.5533 46.71 59.8143 45.8889C60.0927 45.0678 60.4755 44.336 60.9627 43.6934C61.4672 43.0509 62.0675 42.5332 62.7635 42.1406C63.4768 41.7479 64.2598 41.5515 65.1124 41.5515C65.6692 41.5515 66.2433 41.6943 66.8349 41.9799C67.4265 42.2477 67.8702 42.7296 68.166 43.4257L68.5835 41.9799H70.7236L69.0794 48.8876ZM62.0849 48.0308C62.0849 48.7448 62.2676 49.3249 62.633 49.7711C63.0158 50.1995 63.5116 50.4137 64.1206 50.4137C64.5904 50.4137 65.0167 50.2887 65.3995 50.0388C65.7996 49.7889 66.1389 49.4766 66.4173 49.1017C66.7131 48.7091 66.9393 48.2718 67.0959 47.7898C67.2525 47.3079 67.3308 46.8349 67.3308 46.3708C67.3308 45.7104 67.1307 45.166 66.7305 44.7376C66.3477 44.3092 65.8779 44.095 65.3212 44.095C64.8514 44.095 64.4164 44.22 64.0162 44.4699C63.616 44.7019 63.2681 45.0143 62.9723 45.407C62.6939 45.7818 62.4764 46.2012 62.3198 46.6653C62.1632 47.1294 62.0849 47.5846 62.0849 48.0308Z" fill="black"/>
</svg>
