<svg width="270" height="44" viewBox="0 0 270 44" fill="none" xmlns="http://www.w3.org/2000/svg">
<path d="M161.895 29.4561L167.637 28.8613C167.801 30.1602 168.286 31.1924 169.093 31.958C169.899 32.71 170.829 33.0859 171.882 33.0859C173.085 33.0859 174.104 32.6006 174.938 31.6299C175.771 30.6455 176.188 29.1689 176.188 27.2002C176.188 25.3545 175.771 23.9736 174.938 23.0576C174.117 22.1279 173.044 21.6631 171.718 21.6631C170.063 21.6631 168.58 22.3945 167.268 23.8574L162.592 23.1807L165.545 7.5332H180.782V12.9268H169.913L169.011 18.0332C170.296 17.3906 171.608 17.0693 172.948 17.0693C175.505 17.0693 177.672 17.999 179.449 19.8584C181.227 21.7178 182.115 24.1309 182.115 27.0977C182.115 29.5723 181.397 31.7803 179.962 33.7217C178.007 36.374 175.293 37.7002 171.82 37.7002C169.045 37.7002 166.782 36.9551 165.032 35.4648C163.282 33.9746 162.236 31.9717 161.895 29.4561Z" fill="black"/>
<path d="M157.957 14.4854L152.379 15.1006C152.242 13.9521 151.887 13.1045 151.312 12.5576C150.738 12.0107 149.993 11.7373 149.077 11.7373C147.86 11.7373 146.828 12.2842 145.98 13.3779C145.146 14.4717 144.62 16.748 144.401 20.207C145.837 18.5117 147.621 17.6641 149.754 17.6641C152.16 17.6641 154.218 18.5801 155.927 20.4121C157.649 22.2441 158.511 24.6094 158.511 27.5078C158.511 30.584 157.608 33.0518 155.804 34.9111C153.999 36.7705 151.682 37.7002 148.852 37.7002C145.816 37.7002 143.321 36.5244 141.366 34.1729C139.411 31.8076 138.434 27.9385 138.434 22.5654C138.434 17.0557 139.452 13.084 141.489 10.6504C143.526 8.2168 146.172 7 149.426 7C151.709 7 153.596 7.64258 155.086 8.92773C156.59 10.1992 157.547 12.0518 157.957 14.4854ZM144.894 27.0566C144.894 28.9297 145.324 30.3789 146.186 31.4043C147.047 32.416 148.031 32.9219 149.139 32.9219C150.205 32.9219 151.094 32.5049 151.805 31.6709C152.516 30.8369 152.871 29.4697 152.871 27.5693C152.871 25.6143 152.488 24.1855 151.723 23.2832C150.957 22.3672 150 21.9092 148.852 21.9092C147.744 21.9092 146.808 22.3467 146.042 23.2217C145.276 24.083 144.894 25.3613 144.894 27.0566Z" fill="black"/>
<path d="M115.178 30.2354L120.756 29.6201C120.893 30.7549 121.248 31.5957 121.822 32.1426C122.396 32.6895 123.155 32.9629 124.099 32.9629C125.288 32.9629 126.3 32.416 127.134 31.3223C127.968 30.2285 128.501 27.959 128.733 24.5137C127.284 26.1953 125.473 27.0361 123.299 27.0361C120.934 27.0361 118.89 26.127 117.167 24.3086C115.458 22.4766 114.604 20.0977 114.604 17.1719C114.604 14.123 115.506 11.6689 117.311 9.80957C119.129 7.93652 121.439 7 124.242 7C127.291 7 129.793 8.18262 131.748 10.5479C133.703 12.8994 134.681 16.7754 134.681 22.1758C134.681 27.6719 133.662 31.6367 131.625 34.0703C129.588 36.5039 126.936 37.7207 123.668 37.7207C121.316 37.7207 119.416 37.0986 117.967 35.8545C116.518 34.5967 115.588 32.7236 115.178 30.2354ZM128.221 17.6436C128.221 15.7842 127.79 14.3418 126.929 13.3164C126.081 12.291 125.097 11.7783 123.976 11.7783C122.909 11.7783 122.021 12.2021 121.31 13.0498C120.612 13.8838 120.264 15.2578 120.264 17.1719C120.264 19.1133 120.646 20.542 121.412 21.458C122.178 22.3604 123.135 22.8115 124.283 22.8115C125.391 22.8115 126.32 22.374 127.072 21.499C127.838 20.624 128.221 19.3389 128.221 17.6436Z" fill="black"/>
<path d="M111.199 14.4854L105.621 15.1006C105.484 13.9521 105.129 13.1045 104.555 12.5576C103.98 12.0107 103.235 11.7373 102.319 11.7373C101.103 11.7373 100.07 12.2842 99.2227 13.3779C98.3887 14.4717 97.8623 16.748 97.6436 20.207C99.0791 18.5117 100.863 17.6641 102.996 17.6641C105.402 17.6641 107.46 18.5801 109.169 20.4121C110.892 22.2441 111.753 24.6094 111.753 27.5078C111.753 30.584 110.851 33.0518 109.046 34.9111C107.241 36.7705 104.924 37.7002 102.094 37.7002C99.0586 37.7002 96.5635 36.5244 94.6084 34.1729C92.6533 31.8076 91.6758 27.9385 91.6758 22.5654C91.6758 17.0557 92.6943 13.084 94.7314 10.6504C96.7686 8.2168 99.4141 7 102.668 7C104.951 7 106.838 7.64258 108.328 8.92773C109.832 10.1992 110.789 12.0518 111.199 14.4854ZM98.1357 27.0566C98.1357 28.9297 98.5664 30.3789 99.4277 31.4043C100.289 32.416 101.273 32.9219 102.381 32.9219C103.447 32.9219 104.336 32.5049 105.047 31.6709C105.758 30.8369 106.113 29.4697 106.113 27.5693C106.113 25.6143 105.73 24.1855 104.965 23.2832C104.199 22.3672 103.242 21.9092 102.094 21.9092C100.986 21.9092 100.05 22.3467 99.2842 23.2217C98.5186 24.083 98.1357 25.3613 98.1357 27.0566Z" fill="black"/>
<path d="M83.042 37.1875H77.2793V15.4697C75.1738 17.4385 72.6924 18.8945 69.835 19.8379V14.6084C71.3389 14.1162 72.9727 13.1865 74.7363 11.8193C76.5 10.4385 77.71 8.83203 78.3662 7H83.042V37.1875Z" fill="black"/>
<path d="M45 29.4561L50.7422 28.8613C50.9062 30.1602 51.3916 31.1924 52.1982 31.958C53.0049 32.71 53.9346 33.0859 54.9873 33.0859C56.1904 33.0859 57.209 32.6006 58.043 31.6299C58.877 30.6455 59.2939 29.1689 59.2939 27.2002C59.2939 25.3545 58.877 23.9736 58.043 23.0576C57.2227 22.1279 56.1494 21.6631 54.8232 21.6631C53.1689 21.6631 51.6855 22.3945 50.373 23.8574L45.6973 23.1807L48.6504 7.5332H63.8877V12.9268H53.0186L52.1162 18.0332C53.4014 17.3906 54.7139 17.0693 56.0537 17.0693C58.6104 17.0693 60.7773 17.999 62.5547 19.8584C64.332 21.7178 65.2207 24.1309 65.2207 27.0977C65.2207 29.5723 64.5029 31.7803 63.0674 33.7217C61.1123 36.374 58.3984 37.7002 54.9258 37.7002C52.1504 37.7002 49.8877 36.9551 48.1377 35.4648C46.3877 33.9746 45.3418 31.9717 45 29.4561Z" fill="black"/>
<path d="M231.321 20.9658C229.831 20.3369 228.744 19.4756 228.061 18.3818C227.391 17.2744 227.056 16.0645 227.056 14.752C227.056 12.5098 227.835 10.6572 229.394 9.19434C230.966 7.73145 233.194 7 236.079 7C238.937 7 241.151 7.73145 242.724 9.19434C244.31 10.6572 245.103 12.5098 245.103 14.752C245.103 16.1465 244.74 17.3906 244.016 18.4844C243.291 19.5645 242.272 20.3916 240.96 20.9658C242.628 21.6357 243.893 22.6133 244.754 23.8984C245.629 25.1836 246.066 26.667 246.066 28.3486C246.066 31.124 245.178 33.3799 243.4 35.1162C241.637 36.8525 239.285 37.7207 236.346 37.7207C233.611 37.7207 231.335 37.0029 229.517 35.5674C227.37 33.8721 226.297 31.5479 226.297 28.5947C226.297 26.9678 226.7 25.4775 227.507 24.124C228.313 22.7568 229.585 21.7041 231.321 20.9658ZM232.511 15.1621C232.511 16.3105 232.832 17.2061 233.475 17.8486C234.131 18.4912 234.999 18.8125 236.079 18.8125C237.173 18.8125 238.048 18.4912 238.704 17.8486C239.36 17.1924 239.688 16.29 239.688 15.1416C239.688 14.0615 239.36 13.2002 238.704 12.5576C238.062 11.9014 237.207 11.5732 236.141 11.5732C235.033 11.5732 234.151 11.9014 233.495 12.5576C232.839 13.2139 232.511 14.082 232.511 15.1621ZM231.978 28.041C231.978 29.627 232.381 30.8643 233.188 31.7529C234.008 32.6416 235.026 33.0859 236.243 33.0859C237.433 33.0859 238.417 32.6621 239.196 31.8145C239.976 30.9531 240.365 29.7158 240.365 28.1025C240.365 26.6943 239.969 25.5664 239.176 24.7188C238.383 23.8574 237.378 23.4268 236.161 23.4268C234.753 23.4268 233.7 23.9121 233.003 24.8828C232.319 25.8535 231.978 26.9062 231.978 28.041Z" fill="black"/>
<path d="M203 12.8857V7.5332H222.708V11.7168C221.081 13.3164 219.427 15.6133 217.745 18.6074C216.063 21.6016 214.778 24.7871 213.89 28.1641C213.015 31.5273 212.584 34.5352 212.598 37.1875H207.04C207.136 33.0312 207.99 28.793 209.604 24.4727C211.23 20.1523 213.397 16.29 216.104 12.8857H203Z" fill="black"/>
</svg>
