<svg width="74" height="70" viewBox="0 0 74 70" fill="none" xmlns="http://www.w3.org/2000/svg">
<path d="M15.8614 9.67673C15.007 10.8598 14.2785 12.1531 13.6987 13.5376C11.9003 11.8239 9.5125 10.8 6.93493 10.8H4V6.4H6.93493C10.2792 6.4 13.3987 7.61263 15.8614 9.67673ZM23.8569 23.4624C25.6553 25.1761 28.0431 26.2 30.6206 26.2H33.5556V30.6H30.6206C27.2763 30.6 24.1568 29.3874 21.6941 27.3233C22.5485 26.1402 23.2771 24.8469 23.8569 23.4624ZM33.5556 21.8L42 28.4L33.5556 35V21.8ZM4 26.2H6.93493C11.6316 26.2 15.6981 22.8006 16.717 18.0228C18.1651 11.2317 23.945 6.4 30.6206 6.4H33.5556V10.8H30.6206C25.924 10.8 21.8575 14.1994 20.8386 18.9772C19.3905 25.7683 13.6105 30.6 6.93493 30.6H4V26.2ZM33.5556 2L42 8.6L33.5556 15.2V2Z" fill="black"/>
</svg>
