<svg width="24" height="24" viewBox="0 0 24 24" fill="none" xmlns="http://www.w3.org/2000/svg">
<path d="M5.61538 16C5.15513 16 4.77083 15.8458 4.4625 15.5375C4.15417 15.2292 4 14.8449 4 14.3846V9.61539C4 9.15514 4.15417 8.77085 4.4625 8.46251C4.77083 8.15418 5.15513 8.00001 5.61538 8.00001H18.3846C18.8449 8.00001 19.2292 8.15418 19.5375 8.46251C19.8458 8.77085 20 9.15514 20 9.61539V14.3846C20 14.8449 19.8458 15.2292 19.5375 15.5375C19.2292 15.8458 18.8449 16 18.3846 16H5.61538ZM5.61538 15H18.3846C18.5385 15 18.6795 14.9359 18.8077 14.8077C18.9359 14.6795 19 14.5385 19 14.3846V9.61539C19 9.46155 18.9359 9.32053 18.8077 9.19231C18.6795 9.06411 18.5385 9.00001 18.3846 9.00001H5.61538C5.46154 9.00001 5.32052 9.06411 5.1923 9.19231C5.0641 9.32053 5 9.46155 5 9.61539V14.3846C5 14.5385 5.0641 14.6795 5.1923 14.8077C5.32052 14.9359 5.46154 15 5.61538 15ZM4 5.61539V4.61539H20V5.61539H4ZM4 19.3846V18.3846H20V19.3846H4Z" fill="#D0D0D0"/>
</svg>
