<svg width="20" height="20" viewBox="0 0 20 20" fill="none" xmlns="http://www.w3.org/2000/svg">
<path d="M12.8799 19C13.1281 19 13.2973 18.8427 13.3253 18.5939C13.9393 14.337 14.0571 14.3194 18.5649 13.5612C18.8308 13.5234 19 13.388 19 13.1452C19 12.9074 18.8308 12.7611 18.6055 12.7232C14.0902 11.8774 13.9393 11.9524 13.3253 7.69058C13.2973 7.43686 13.1281 7.27957 12.8799 7.27957C12.6484 7.27957 12.4792 7.43686 12.4398 7.67961C11.8144 11.9705 11.7464 12.015 7.15453 12.7232C6.93436 12.7501 6.76513 12.9074 6.76513 13.1452C6.76513 13.377 6.93436 13.5234 7.15453 13.5612C11.7464 14.4131 11.8031 14.3638 12.4398 18.6108C12.4792 18.8427 12.6484 19 12.8799 19ZM4.96139 8.59349C5.11399 8.59349 5.19293 8.51183 5.22094 8.36661C5.69368 5.67885 5.72339 5.56604 8.66426 5.06145C8.82093 5.03459 8.92278 4.948 8.92278 4.79674C8.92278 4.64058 8.82093 4.55397 8.66426 4.52713C5.73374 3.9612 5.85375 3.84839 5.22094 1.22196C5.19293 1.07674 5.11399 1 4.96139 1C4.80879 1 4.71831 1.07674 4.6903 1.22196C4.06903 3.84839 4.21484 3.9612 1.25852 4.52713C1.09031 4.55397 1 4.64058 1 4.79674C1 4.948 1.09031 5.03459 1.25852 5.06145C4.21484 5.6323 4.20737 5.67885 4.6903 8.36661C4.71831 8.51183 4.80879 8.59349 4.96139 8.59349Z" fill="white" fill-opacity="0.85"/>
</svg>
