<svg width="200" height="27" viewBox="0 0 200 27" fill="none" xmlns="http://www.w3.org/2000/svg">
<path d="M186.9 26V24.8799C187.606 24.7588 188.07 24.562 188.292 24.2896C188.504 24.0373 188.61 23.6134 188.61 23.0181V11.7109C188.61 11.2266 188.494 10.9036 188.262 10.7422C188 10.5605 187.556 10.4395 186.93 10.3789V9.25879C188.192 9.2487 189.403 9.04183 190.563 8.63818V11.272C190.896 10.5252 191.335 9.9248 191.88 9.4707C192.556 8.91569 193.288 8.63818 194.075 8.63818C195.699 8.63818 196.814 9.59684 197.42 11.5142C197.743 12.5334 197.904 13.8503 197.904 15.4648V23.0181C197.904 23.6942 198.025 24.1634 198.268 24.4258C198.51 24.6781 198.944 24.8294 199.569 24.8799V26H194.65V24.8799C195.144 24.7891 195.472 24.6276 195.634 24.3955C195.826 24.113 195.921 23.6538 195.921 23.0181V15.374C195.921 12.0843 195.19 10.4395 193.727 10.4395C193.212 10.4395 192.687 10.7069 192.152 11.2417C191.547 11.8472 191.017 12.7352 190.563 13.9058V23.0181C190.563 23.6942 190.664 24.1634 190.866 24.4258C191.027 24.6377 191.37 24.7891 191.895 24.8799V26H186.9Z" fill="white"/>
<path d="M179.71 15.1167V14.4961C179.71 11.5596 178.766 10.0913 176.879 10.0913C175.85 10.0913 175.098 10.4647 174.624 11.2114C175.118 11.5041 175.366 11.943 175.366 12.5283C175.366 12.7907 175.3 13.0278 175.169 13.2397C174.907 13.6636 174.493 13.8755 173.928 13.8755C173.504 13.8755 173.156 13.7292 172.883 13.4365C172.601 13.1338 172.459 12.7402 172.459 12.2559C172.459 11.4385 172.843 10.6665 173.61 9.93994C174.518 9.0721 175.633 8.63818 176.955 8.63818C178.701 8.63818 179.998 9.31934 180.845 10.6816C181.471 11.6908 181.784 12.9925 181.784 14.5869V22.8364C181.784 23.896 181.935 24.4258 182.238 24.4258C182.52 24.4258 182.793 24.012 183.055 23.1846L183.948 23.9565C183.696 24.784 183.439 25.3844 183.176 25.7578C182.783 26.2926 182.288 26.5601 181.693 26.5601C180.532 26.5601 179.882 25.672 179.74 23.896C179.357 24.6932 178.857 25.3239 178.242 25.7881C177.535 26.3027 176.768 26.5601 175.941 26.5601C174.458 26.5601 173.373 25.8335 172.687 24.3804C172.303 23.563 172.111 22.6043 172.111 21.5044C172.111 19.8192 172.651 18.4165 173.731 17.2964C174.357 16.6304 175.235 16.1006 176.365 15.707C177.202 15.4144 178.04 15.2378 178.877 15.1772L179.71 15.1167ZM179.71 16.6758L179.059 16.7363C175.901 17.029 174.321 18.5881 174.321 21.4136C174.321 22.1704 174.417 22.8011 174.609 23.3057C174.952 24.1937 175.537 24.6377 176.365 24.6377C177.162 24.6377 177.914 24.2139 178.62 23.3662C179.347 22.4883 179.71 21.5246 179.71 20.4751V16.6758Z" fill="white"/>
<path d="M164.694 26L164.543 24.4258C163.796 25.889 162.706 26.6206 161.273 26.6206C159.719 26.6206 158.488 25.7629 157.58 24.0474C156.702 22.3924 156.263 20.1825 156.263 17.4175C156.263 14.7433 156.813 12.5485 157.913 10.833C158.862 9.36979 159.967 8.63818 161.228 8.63818C162.035 8.63818 162.777 8.95605 163.453 9.5918C163.857 9.97526 164.19 10.4546 164.452 11.0298V5.76221C164.452 4.84391 164.356 4.27376 164.165 4.05176C163.953 3.78939 163.438 3.62288 162.621 3.55225V2.43213C163.922 2.43213 165.194 2.22526 166.435 1.81152V22.7456C166.435 23.4621 166.536 23.9767 166.738 24.2896C166.96 24.6226 167.429 24.8193 168.146 24.8799V26H164.694ZM161.637 10.3789C160.92 10.3789 160.269 10.8683 159.684 11.8472C158.847 13.2297 158.428 15.0864 158.428 17.4175C158.428 20.0311 158.836 22.0695 159.654 23.5327C160.189 24.4914 160.794 24.9707 161.47 24.9707C163.499 24.9707 164.513 22.4126 164.513 17.2964C164.513 14.5617 164.144 12.6545 163.408 11.5747C162.853 10.7775 162.262 10.3789 161.637 10.3789Z" fill="white"/>
<path d="M149.648 26L149.346 23.8657C149.033 24.7941 148.528 25.5055 147.832 26C147.237 26.4137 146.561 26.6206 145.804 26.6206C144.573 26.6206 143.574 26.0404 142.807 24.8799C142.211 23.9818 141.914 22.5387 141.914 20.5508V11.9531C141.914 11.4385 141.787 11.0651 141.535 10.833C141.343 10.6615 140.879 10.5101 140.143 10.3789V9.25879C141.343 9.2487 142.585 9.04183 143.866 8.63818V20.4448C143.866 23.3612 144.598 24.8193 146.061 24.8193C146.667 24.8193 147.252 24.5065 147.817 23.8809C148.422 23.2048 148.882 22.2663 149.194 21.0654V11.9531C149.194 11.388 149.068 10.9844 148.816 10.7422C148.634 10.5605 148.21 10.4395 147.544 10.3789V9.25879C148.786 9.2487 149.997 9.04183 151.177 8.63818V22.564C151.177 23.4116 151.278 23.9969 151.48 24.3198C151.682 24.6427 152.085 24.8294 152.691 24.8799V26H149.648Z" fill="white"/>
<path d="M131.015 8.63818C132.519 8.63818 133.79 9.40511 134.83 10.939C135.99 12.6545 136.57 14.9048 136.57 17.6899C136.57 19.9504 136.187 21.8626 135.42 23.4268C134.381 25.556 132.897 26.6206 130.97 26.6206C129.305 26.6206 127.952 25.7679 126.913 24.0625C125.914 22.4277 125.415 20.3035 125.415 17.6899C125.415 14.5718 126.121 12.1499 127.534 10.4243C128.513 9.23356 129.673 8.63818 131.015 8.63818ZM130.985 10.1216C130.127 10.1216 129.396 10.6665 128.79 11.7563C128.023 13.1287 127.64 15.0763 127.64 17.5991C127.64 19.8595 128.013 21.7314 128.76 23.2148C129.406 24.4964 130.152 25.1372 131 25.1372C131.737 25.1372 132.413 24.6175 133.028 23.5781C133.906 22.0745 134.345 20.0916 134.345 17.6294C134.345 14.9956 133.937 12.9925 133.119 11.6201C132.524 10.6211 131.812 10.1216 130.985 10.1216Z" fill="white"/>
<path d="M111.247 26V24.8799C111.953 24.7891 112.427 24.6276 112.669 24.3955C112.902 24.1634 113.018 23.7043 113.018 23.0181V11.9531C113.018 11.3477 112.891 10.9339 112.639 10.7119C112.427 10.5303 111.973 10.4193 111.277 10.3789V9.25879C112.357 9.25879 113.557 9.05192 114.879 8.63818V11.9834C115.333 10.9238 115.883 10.1216 116.529 9.57666C117.266 8.95101 118.023 8.63818 118.8 8.63818C119.214 8.63818 119.597 8.74414 119.95 8.95605C120.677 9.38997 121.04 10.0106 121.04 10.8179C121.04 11.1509 120.969 11.4536 120.828 11.7261C120.546 12.271 120.086 12.5435 119.451 12.5435C119.097 12.5435 118.785 12.4425 118.512 12.2407C118.119 11.9481 117.922 11.5646 117.922 11.0903C117.922 10.7674 118.053 10.4445 118.315 10.1216C117.801 10.3133 117.286 10.7371 116.771 11.3931C116.035 12.3517 115.444 13.4062 115 14.5566V23.0181C115 23.6538 115.147 24.113 115.439 24.3955C115.672 24.6276 116.156 24.7891 116.893 24.8799V26H111.247Z" fill="white"/>
<path d="M104.147 26.5903L103.466 23.6084C102.689 25.5964 101.478 26.5903 99.8335 26.5903C98.2593 26.5903 96.9373 25.556 95.8677 23.4873C94.6366 21.1159 94.021 18.0179 94.021 14.1934C94.021 10.6816 94.576 7.77539 95.686 5.47461C96.8465 3.05273 98.3652 1.8418 100.242 1.8418C101.514 1.8418 102.498 2.34131 103.194 3.34033C103.416 3.67334 103.592 3.83984 103.724 3.83984C103.986 3.83984 104.153 3.37061 104.223 2.43213H105.146V8.66846H104.087C103.754 7.07406 103.391 5.92871 102.997 5.23242C102.341 4.09212 101.468 3.52197 100.378 3.52197C99.2583 3.52197 98.34 4.34945 97.6235 6.00439C96.7557 8.00244 96.3218 10.7523 96.3218 14.2539C96.3218 17.9977 96.8314 20.8939 97.8506 22.9424C98.4964 24.2542 99.2129 24.9102 100 24.9102C100.949 24.9102 101.726 24.3753 102.331 23.3057C102.906 22.2663 103.194 21.131 103.194 19.8999V17.3418C103.194 16.6859 103.073 16.2217 102.831 15.9492C102.679 15.7878 102.23 15.6566 101.483 15.5557V14.4355H106.69V15.5557C106.105 15.6667 105.722 15.8281 105.54 16.04C105.358 16.2822 105.268 16.7918 105.268 17.5688V26.5903H104.147Z" fill="white"/>
<path d="M62.8999 26V24.8799C63.6063 24.7588 64.0705 24.562 64.2925 24.2896C64.5044 24.0373 64.6104 23.6134 64.6104 23.0181V11.7109C64.6104 11.2266 64.4943 10.9036 64.2622 10.7422C63.9998 10.5605 63.5558 10.4395 62.9302 10.3789V9.25879C64.1916 9.2487 65.4025 9.04183 66.563 8.63818V11.272C66.896 10.5252 67.335 9.9248 67.8799 9.4707C68.556 8.91569 69.2876 8.63818 70.0747 8.63818C71.6994 8.63818 72.8145 9.59684 73.4199 11.5142C73.7428 12.5334 73.9043 13.8503 73.9043 15.4648V23.0181C73.9043 23.6942 74.0254 24.1634 74.2676 24.4258C74.5098 24.6781 74.9437 24.8294 75.5693 24.8799V26H70.6499V24.8799C71.1444 24.7891 71.4723 24.6276 71.6338 24.3955C71.8255 24.113 71.9214 23.6538 71.9214 23.0181V15.374C71.9214 12.0843 71.1898 10.4395 69.7266 10.4395C69.2119 10.4395 68.6872 10.7069 68.1523 11.2417C67.5469 11.8472 67.0171 12.7352 66.563 13.9058V23.0181C66.563 23.6942 66.6639 24.1634 66.8657 24.4258C67.0272 24.6377 67.3703 24.7891 67.895 24.8799V26H62.8999Z" fill="white"/>
<path d="M55.71 15.1167V14.4961C55.71 11.5596 54.7664 10.0913 52.8794 10.0913C51.8501 10.0913 51.0983 10.4647 50.624 11.2114C51.1185 11.5041 51.3657 11.943 51.3657 12.5283C51.3657 12.7907 51.3001 13.0278 51.1689 13.2397C50.9066 13.6636 50.4928 13.8755 49.9277 13.8755C49.5039 13.8755 49.1558 13.7292 48.8833 13.4365C48.6007 13.1338 48.4595 12.7402 48.4595 12.2559C48.4595 11.4385 48.8429 10.6665 49.6099 9.93994C50.5181 9.0721 51.6331 8.63818 52.9551 8.63818C54.7008 8.63818 55.9976 9.31934 56.8452 10.6816C57.4709 11.6908 57.7837 12.9925 57.7837 14.5869V22.8364C57.7837 23.896 57.9351 24.4258 58.2378 24.4258C58.5203 24.4258 58.7928 24.012 59.0552 23.1846L59.9482 23.9565C59.696 24.784 59.4386 25.3844 59.1763 25.7578C58.7827 26.2926 58.2882 26.5601 57.6929 26.5601C56.5324 26.5601 55.8815 25.672 55.7402 23.896C55.3568 24.6932 54.8573 25.3239 54.2417 25.7881C53.5353 26.3027 52.7684 26.5601 51.9409 26.5601C50.4575 26.5601 49.3727 25.8335 48.6865 24.3804C48.3031 23.563 48.1113 22.6043 48.1113 21.5044C48.1113 19.8192 48.6512 18.4165 49.731 17.2964C50.3566 16.6304 51.2345 16.1006 52.3647 15.707C53.2023 15.4144 54.0399 15.2378 54.8774 15.1772L55.71 15.1167ZM55.71 16.6758L55.0591 16.7363C51.9006 17.029 50.3213 18.5881 50.3213 21.4136C50.3213 22.1704 50.4172 22.8011 50.6089 23.3057C50.952 24.1937 51.5373 24.6377 52.3647 24.6377C53.1619 24.6377 53.9137 24.2139 54.6201 23.3662C55.3467 22.4883 55.71 21.5246 55.71 20.4751V16.6758Z" fill="white"/>
<path d="M38 0.979004C38.3633 0.979004 38.7064 1.07992 39.0293 1.28174C39.6247 1.6652 39.9224 2.20508 39.9224 2.90137C39.9224 3.40592 39.7458 3.84489 39.3926 4.21826C39.0192 4.62191 38.555 4.82373 38 4.82373C37.6771 4.82373 37.3743 4.74805 37.0918 4.59668C36.4157 4.22331 36.0776 3.6582 36.0776 2.90137C36.0776 2.31608 36.2996 1.83171 36.7437 1.44824C37.1069 1.13542 37.5257 0.979004 38 0.979004ZM34.9575 26V24.8799C35.8153 24.7588 36.3703 24.5973 36.6226 24.3955C36.9354 24.1331 37.0918 23.674 37.0918 23.0181V11.9531C37.0918 11.388 36.9657 11.0046 36.7134 10.8027C36.4409 10.5908 35.9263 10.4495 35.1694 10.3789V9.25879C36.4006 9.2487 37.6922 9.04183 39.0444 8.63818V23.0181C39.0444 23.6841 39.1908 24.1432 39.4834 24.3955C39.766 24.6276 40.3109 24.7891 41.1182 24.8799V26H34.9575Z" fill="white"/>
<path d="M18.2466 26V24.8799C18.953 24.7891 19.4272 24.6276 19.6694 24.3955C19.9015 24.1634 20.0176 23.7043 20.0176 23.0181V11.9531C20.0176 11.3477 19.8914 10.9339 19.6392 10.7119C19.4272 10.5303 18.9731 10.4193 18.2769 10.3789V9.25879C19.3566 9.25879 20.5575 9.05192 21.8794 8.63818V11.9834C22.3335 10.9238 22.8835 10.1216 23.5293 9.57666C24.266 8.95101 25.0228 8.63818 25.7998 8.63818C26.2135 8.63818 26.597 8.74414 26.9502 8.95605C27.6768 9.38997 28.04 10.0106 28.04 10.8179C28.04 11.1509 27.9694 11.4536 27.8281 11.7261C27.5456 12.271 27.0864 12.5435 26.4507 12.5435C26.0975 12.5435 25.7847 12.4425 25.5122 12.2407C25.1187 11.9481 24.9219 11.5646 24.9219 11.0903C24.9219 10.7674 25.0531 10.4445 25.3154 10.1216C24.8008 10.3133 24.2861 10.7371 23.7715 11.3931C23.0348 12.3517 22.4445 13.4062 22.0005 14.5566V23.0181C22.0005 23.6538 22.1468 24.113 22.4395 24.3955C22.6715 24.6276 23.1559 24.7891 23.8926 24.8799V26H18.2466Z" fill="white"/>
<path d="M0.793945 2.44727H6.80322C8.46826 2.44727 9.77002 2.92155 10.7085 3.87012C11.7983 4.95996 12.3433 6.3374 12.3433 8.00244C12.3433 9.4152 12.0052 10.606 11.3291 11.5747C10.7035 12.4526 9.81543 13.0278 8.66504 13.3003V13.4214C10.2998 13.9159 11.4906 14.8594 12.2373 16.252C12.7419 17.1904 12.9941 18.2853 12.9941 19.5366C12.9941 21.6154 12.3937 23.235 11.1929 24.3955C10.0828 25.4652 8.68018 26 6.98486 26H0.793945V24.8799C1.84342 24.7689 2.36816 24.2643 2.36816 23.3662L2.36816 4.99023C2.36816 4.53613 2.24707 4.21322 2.00488 4.02148C1.77279 3.83984 1.36914 3.68848 0.793945 3.56738V2.44727ZM4.3208 12.7402H6.18262C7.52474 12.7402 8.57422 12.2004 9.33105 11.1206C9.89616 10.3032 10.1787 9.26383 10.1787 8.00244C10.1787 6.57959 9.7902 5.49479 9.01318 4.74805C8.48844 4.24349 7.72152 3.99121 6.7124 3.99121H5.59229C4.74463 3.99121 4.3208 4.50081 4.3208 5.52002V12.7402ZM4.3208 14.2842V23.0483C4.3208 23.5428 4.41162 23.8859 4.59326 24.0776C4.84554 24.3299 5.24919 24.4561 5.8042 24.4561H6.86377C8.04443 24.4561 9.00309 23.9969 9.73975 23.0786C10.4461 22.2108 10.7993 21.02 10.7993 19.5063C10.7993 17.8514 10.3906 16.5597 9.57324 15.6313C8.79622 14.7332 7.79215 14.2842 6.56104 14.2842H4.3208Z" fill="white"/>
</svg>
